=# Blender v2.80 (sub 75) OBJ File: ''
# www.blender.org
mtllib goal.mtl
o Cube
v 1.000000 1.000000 -1.000000
v 1.000000 -1.000000 -1.000000
v 1.000000 1.000000 1.000000
v 1.000000 -1.000000 1.000000
v -1.000000 1.000000 -1.000000
v -1.000000 -1.000000 -1.000000
v -1.000000 1.000000 1.000000
v -1.000000 -1.000000 1.000000
vt 0.370349 0.322441
vt 0.620349 0.322441
vt 0.620349 0.572441
vt 0.370349 0.572441
vt -0.001550 -0.003782
vt 0.998450 -0.003782
vt 0.998450 0.996218
vt -0.001550 0.996218
vt -0.002100 -0.001867
vt 0.997900 -0.001867
vt 0.997900 0.998132
vt -0.002100 0.998132
vt 0.370349 0.484916
vt 0.620349 0.484916
vt 0.620349 0.734916
vt 0.370349 0.734916
vt 0.000000 0.001000
vt 1.000000 0.001000
vt 1.000000 1.001000
vt 0.000000 1.001000
vt -0.001132 -0.000566
vt 0.998868 -0.000566
vt 0.998868 0.999434
vt -0.001132 0.999434
vn 0.0000 1.0000 0.0000
vn 0.0000 0.0000 1.0000
vn -1.0000 0.0000 0.0000
vn 0.0000 -1.0000 0.0000
vn 1.0000 0.0000 0.0000
vn 0.0000 0.0000 -1.0000
usemtl Material
s off
f 1/1/1 5/2/1 7/3/1 3/4/1
f 4/5/2 3/6/2 7/7/2 8/8/2
f 8/9/3 7/10/3 5/11/3 6/12/3
f 6/13/4 2/14/4 4/15/4 8/16/4
f 2/17/5 1/18/5 3/19/5 4/20/5
f 6/21/6 5/22/6 1/23/6 2/24/6
